HIERARCHY
ROOT Hips
{
 OFFSET 0.000000 0.000000 0.000000
 CHANNELS 6 Xposition Yposition Zposition Yrotation Xrotation Zrotation
 JOINT Chest
 {
  OFFSET 0.000000 9.585900 0.002600
  CHANNELS 3 Yrotation Xrotation Zrotation
  JOINT Chest2
  {
   OFFSET 0.000000 9.601200 -0.005300
   CHANNELS 3 Yrotation Xrotation Zrotation
   JOINT Chest3
   {
    OFFSET 0.000000 9.561800 0.000000
    CHANNELS 3 Yrotation Xrotation Zrotation
    JOINT Chest4
    {
     OFFSET 0.000000 9.552100 0.000000
     CHANNELS 3 Yrotation Xrotation Zrotation
     JOINT Neck
     {
      OFFSET 0.000000 14.453000 0.000000
      CHANNELS 3 Yrotation Xrotation Zrotation
      JOINT Head
      {
       OFFSET 0.000000 8.936500 -0.011300
       CHANNELS 3 Yrotation Xrotation Zrotation
       End Site
       {
        OFFSET 0.000000 17.073600 -0.006000
       }
      }
     }
     JOINT RightCollar
     {
      OFFSET -2.921100 9.558500 0.000000
      CHANNELS 3 Yrotation Xrotation Zrotation
      JOINT RightShoulder
      {
       OFFSET -13.519700 0.000000 0.000000
       CHANNELS 3 Yrotation Xrotation Zrotation
       JOINT RightElbow
       {
        OFFSET 0.000000 -29.696600 0.000000
        CHANNELS 3 Yrotation Xrotation Zrotation
        JOINT RightWrist
        {
         OFFSET 0.000000 -24.004700 0.000000
         CHANNELS 3 Yrotation Xrotation Zrotation
         End Site
         {
          OFFSET 0.000000 -17.728500 0.000000
         }
        }
       }
      }
     }
     JOINT LeftCollar
     {
      OFFSET 2.921100 9.558500 0.000000
      CHANNELS 3 Yrotation Xrotation Zrotation
      JOINT LeftShoulder
      {
       OFFSET 13.519700 0.000000 0.000000
       CHANNELS 3 Yrotation Xrotation Zrotation
       JOINT LeftElbow
       {
        OFFSET 0.000000 -29.696600 0.000000
        CHANNELS 3 Yrotation Xrotation Zrotation
        JOINT LeftWrist
        {
         OFFSET 0.000000 -24.004700 0.000000
         CHANNELS 3 Yrotation Xrotation Zrotation
         End Site
         {
          OFFSET 0.000000 -17.728500 0.000000
         }
        }
       }
      }
     }
    }
   }
  }
 }
 JOINT RightHip
 {
  OFFSET -7.771700 -0.012900 -0.001300
  CHANNELS 3 Yrotation Xrotation Zrotation
  JOINT RightKnee
  {
   OFFSET 0.000000 -40.869800 0.001200
   CHANNELS 3 Yrotation Xrotation Zrotation
   JOINT RightAnkle
   {
    OFFSET 0.000000 -39.717900 0.002100
    CHANNELS 3 Yrotation Xrotation Zrotation
    JOINT RightToe
    {
     OFFSET 0.000000 -4.965400 11.033500
     CHANNELS 3 Yrotation Xrotation Zrotation
     End Site
     {
      OFFSET 0.000000 -1.423100 5.872300
     }
    }
   }
  }
 }
 JOINT LeftHip
 {
  OFFSET 7.771700 -0.012900 -0.001300
  CHANNELS 3 Yrotation Xrotation Zrotation
  JOINT LeftKnee
  {
   OFFSET 0.000000 -40.869800 0.001200
   CHANNELS 3 Yrotation Xrotation Zrotation
   JOINT LeftAnkle
   {
    OFFSET 0.000000 -39.717900 0.002100
    CHANNELS 3 Yrotation Xrotation Zrotation
    JOINT LeftToe
    {
     OFFSET 0.000000 -4.965400 11.033500
     CHANNELS 3 Yrotation Xrotation Zrotation
     End Site
     {
      OFFSET 0.000000 -1.423100 5.872300
     }
    }
   }
  }
 }
}
MOTION
Frames: 11
Frame Time: 0.008333
0.000000 85.388000 0.000000 0.000000 -5.767877 0.000000 0.000000 11.653817 0.000000 0.000000 -5.885947 0.000000 0.000000 -0.000000 0.000000 0.000000 -0.000000 0.000000 0.000000 12.528835 0.000000 0.000000 0.711642 0.000000 0.000000 -0.000000 0.000000 0.000000 0.000000 -90.000000 0.000000 -2.309062 0.000000 0.000000 2.309062 0.000000 0.000000 -0.000000 0.000000 0.000000 -0.000000 90.000000 0.000000 -2.309062 0.000000 0.000000 2.309062 0.000000 0.000000 8.520406 0.000000 0.000000 1.905762 0.000000 -0.000000 -4.658285 0.000000 0.000000 -0.000000 0.000000 0.000000 8.520406 0.000000 0.000000 1.905762 0.000000 -0.000000 -4.658285 0.000000 0.000000 -0.000000 0.000000
-275.204962 60.336876 -83.866382 158.759573 -28.176103 2.123823 4.078038 17.823133 1.428385 0.429591 2.003607 0.095431 0.688131 3.299476 0.152933 3.531857 15.552614 1.178069 -0.167077 15.133080 -0.908260 0.070160 -9.837687 -0.899663 0.330394 3.814031 -4.765521 -2.129476 -12.444083 -5.746402 -58.141017 -78.139709 71.751591 -2.813936 0.644268 -37.383022 -3.609764 2.030600 -2.893205 16.096239 -4.832969 1.846463 49.791067 -66.044184 -72.295623 -5.645978 4.660941 2.396286 -0.233329 -41.154031 2.835519 -22.556203 68.786632 -18.025771 0.260643 -3.718929 -3.514452 -0.011423 0.007497 0.001838 14.206113 -41.528646 -0.339451 24.981807 61.719362 24.145552 -16.142701 -12.502461 3.064608 0.009222 -0.030570 0.021412
-275.205368 60.338583 -83.865720 158.746342 -28.189827 2.125623 4.069115 17.818275 1.417850 0.401989 1.988284 0.080676 0.709864 3.317062 0.161731 3.525612 15.547916 1.167558 -0.160560 15.145301 -0.920070 0.093616 -9.833110 -0.898287 0.253462 3.760613 -4.772385 -2.140953 -12.436301 -5.747818 -58.296025 -78.190528 71.952103 -2.791718 0.637268 -37.356980 -3.581861 2.035051 -2.876463 16.078641 -4.850874 1.841065 49.812985 -66.060208 -72.365195 -5.641820 4.665288 2.387800 -0.229526 -41.140880 2.846635 -22.569212 68.784335 -18.044559 0.264732 -3.717964 -3.517417 -0.012151 0.006524 0.004910 14.222051 -41.516248 -0.327523 24.988252 61.722642 24.139927 -16.131303 -12.501917 3.075356 0.012146 -0.024470 0.021662
-275.206453 60.340112 -83.863795 158.737909 -28.196645 2.129471 4.025289 17.800906 1.378981 0.438236 2.006709 0.098015 0.694671 3.311379 0.152903 3.515014 15.543404 1.157032 -0.134054 15.160451 -0.919254 0.101643 -9.831041 -0.906270 0.207268 3.727875 -4.776277 -2.168816 -12.444430 -5.753591 -58.488913 -78.230888 72.172901 -2.770387 0.623938 -37.336489 -3.546898 2.044983 -2.863488 16.057091 -4.875471 1.830958 49.833314 -66.074083 -72.407860 -5.643947 4.660367 2.360651 -0.228061 -41.134636 2.855211 -22.570586 68.780215 -18.055080 0.261563 -3.713842 -3.519159 -0.012747 0.004890 0.007164 14.235217 -41.510470 -0.321617 24.991287 61.717751 24.138333 -16.182033 -12.492443 3.069745 0.000207 -0.019860 0.025951
-275.207665 60.341773 -83.861166 158.732543 -28.200587 2.135925 4.004460 17.798185 1.356714 0.449716 2.007974 0.102281 0.678323 3.307941 0.144889 3.503991 15.540743 1.142498 -0.107280 15.173149 -0.915351 0.070113 -9.799269 -0.944996 0.168290 3.699221 -4.776750 -2.143433 -12.433977 -5.751098 -58.764499 -78.286209 72.409770 -2.755301 0.606965 -37.324923 -3.512634 2.051925 -2.847846 16.035881 -4.896491 1.811773 49.865098 -66.095030 -72.451341 -5.649276 4.660134 2.331368 -0.239375 -41.127557 2.880887 -22.582870 68.766015 -18.095582 0.251487 -3.708332 -3.515253 -0.009120 0.004417 0.009807 14.247328 -41.506529 -0.317705 24.977327 61.719435 24.121184 -16.278126 -12.487116 3.059263 -0.014206 -0.013554 0.033320
-275.209129 60.343249 -83.857520 158.729449 -28.198783 2.146413 3.980743 17.792239 1.330516 0.422063 1.999518 0.087937 0.715446 3.317141 0.160233 3.473866 15.536893 1.122049 -0.102435 15.188480 -0.924653 0.101625 -9.800666 -0.937828 0.137221 3.674836 -4.780002 -2.123907 -12.429828 -5.746965 -59.023019 -78.330819 72.624886 -2.750905 0.588517 -37.321446 -3.487544 2.053417 -2.836541 16.024081 -4.910983 1.784581 49.903092 -66.122504 -72.489671 -5.657777 4.662229 2.304232 -0.236466 -41.127322 2.882779 -22.560538 68.757424 -18.090699 0.239655 -3.701620 -3.510006 -0.009546 0.004335 0.008999 14.258458 -41.505788 -0.317483 24.935553 61.723889 24.068138 -16.332200 -12.481549 3.059662 -0.017825 -0.006954 0.035287
-275.207912 60.345017 -83.853260 158.725595 -28.200352 2.147260 3.963462 17.789856 1.317132 0.419958 1.997901 0.085935 0.724181 3.318299 0.163394 3.440257 15.530312 1.100484 -0.135052 15.216555 -0.937232 0.140352 -9.787357 -0.941613 0.148135 3.671997 -4.774843 -2.261497 -12.475087 -5.778277 -59.033545 -78.278262 72.760118 -2.737762 0.531521 -37.373896 -3.468852 2.042663 -2.841412 16.016697 -4.910252 1.769942 49.921972 -66.151586 -72.490695 -5.661467 4.651156 2.274684 -0.244657 -41.123908 2.901814 -22.566679 68.749881 -18.110149 0.235572 -3.698864 -3.508639 -0.007368 0.003898 0.007574 14.255545 -41.503261 -0.304141 24.919685 61.726059 24.036032 -16.276251 -12.484772 3.073682 -0.078964 -0.002252 0.013920
-275.206538 60.346372 -83.848199 158.729270 -28.198374 2.148088 3.946542 17.784966 1.304863 0.422273 1.998274 0.086594 0.705990 3.312703 0.154529 3.425316 15.526273 1.082564 -0.097267 15.231760 -0.921689 0.057501 -9.716939 -0.913441 0.158125 3.671254 -4.766023 -2.354518 -12.493326 -5.797230 -59.299731 -78.289609 73.021646 -2.757112 0.534404 -37.359524 -3.434877 2.045957 -2.831293 15.990071 -4.915000 1.736810 49.893639 -66.180223 -72.424246 -5.654159 4.614950 2.239579 -0.259403 -41.124273 2.920617 -22.574344 68.741932 -18.134683 0.230458 -3.696945 -3.506369 -0.005210 0.004504 0.007473 14.245104 -41.501361 -0.296031 24.879937 61.719701 23.975585 -16.195391 -12.475836 3.091105 -0.062157 0.000998 0.004011
-275.204699 60.347731 -83.843462 158.729549 -28.200283 2.154422 3.940734 17.786193 1.295494 0.417909 1.996483 0.083960 0.694612 3.307881 0.147008 3.408685 15.524677 1.065095 -0.098982 15.254835 -0.908389 0.075912 -9.711985 -0.906734 0.090475 3.643455 -4.789750 -2.362439 -12.479562 -5.781243 -59.530872 -78.302195 73.225499 -2.775457 0.537182 -37.351832 -3.425291 2.033908 -2.837503 15.978776 -4.913264 1.717550 49.943619 -66.211835 -72.456087 -5.656986 4.636659 2.255497 -0.262360 -41.121187 2.925646 -22.583447 68.734876 -18.155413 0.232562 -3.697365 -3.503687 -0.006833 0.007758 0.007138 14.243635 -41.496085 -0.296340 24.869436 61.716714 23.958757 -16.179356 -12.474678 3.092562 -0.008182 0.000669 0.006294
-275.202395 60.348577 -83.838405 158.729823 -28.201828 2.162860 3.924866 17.781643 1.276190 0.406099 1.985890 0.074247 0.702363 3.314858 0.151296 3.395398 15.522136 1.048912 -0.142655 15.283643 -0.888478 0.095112 -9.690545 -0.887036 0.057737 3.629882 -4.805804 -2.384552 -12.466243 -5.763753 -59.662770 -78.304448 73.329532 -2.784767 0.526406 -37.379636 -3.417064 2.028489 -2.841381 15.962996 -4.915746 1.691118 50.125284 -66.222695 -72.631677 -5.667805 4.668590 2.286554 -0.257715 -41.119412 2.920597 -22.606525 68.724777 -18.185036 0.244851 -3.692668 -3.495836 -0.012569 0.008217 0.001570 14.242435 -41.489202 -0.302109 24.864312 61.706433 23.940439 -16.103005 -12.469178 3.105616 -0.003675 -0.000234 -0.004594
-275.199322 60.348475 -83.832277 158.735259 -28.198636 2.167340 3.909251 17.772474 1.259956 0.405273 1.981387 0.073247 0.686104 3.298367 0.137270 3.396107 15.532372 1.043394 -0.143817 15.295905 -0.867216 0.084114 -9.663556 -0.862596 0.043801 3.624252 -4.814528 -2.444558 -12.452906 -5.757967 -59.780784 -78.294446 73.437525 -2.797300 0.518968 -37.415122 -3.412399 2.025118 -2.843948 15.967319 -4.909906 1.688892 50.231879 -66.220422 -72.732699 -5.649784 4.655168 2.299309 -0.261651 -41.124579 2.930779 -22.604752 68.716168 -18.204659 0.237128 -3.684543 -3.481390 -0.016516 0.007376 -0.002381 14.225604 -41.485902 -0.297058 24.878055 61.684827 23.931719 -16.045461 -12.457057 3.113944 0.039695 -0.000778 -0.004258
